<svg width="119" height="133" viewBox="0 0 119 133" fill="none" xmlns="http://www.w3.org/2000/svg">
<path d="M59.5001 3.125L60.6181 0.888932C59.9143 0.537023 59.0859 0.537023 58.382 0.888932L59.5001 3.125ZM115.833 31.2917H118.333C118.333 30.3447 117.798 29.4791 116.951 29.0556L115.833 31.2917ZM3.16675 31.2917L2.04871 29.0556C1.20175 29.4791 0.666748 30.3447 0.666748 31.2917H3.16675ZM115.833 101.708L116.951 103.944C117.798 103.521 118.333 102.655 118.333 101.708H115.833ZM59.5001 129.875L58.382 132.111C59.0859 132.463 59.9143 132.463 60.6181 132.111L59.5001 129.875ZM3.16675 101.708H0.666748C0.666748 102.655 1.20175 103.521 2.04871 103.944L3.16675 101.708ZM58.382 5.36107L114.715 33.5277L116.951 29.0556L60.6181 0.888932L58.382 5.36107ZM114.715 29.0556L58.382 57.2223L60.6181 61.6944L116.951 33.5277L114.715 29.0556ZM60.6181 57.2223L4.28478 29.0556L2.04871 33.5277L58.382 61.6944L60.6181 57.2223ZM4.28478 33.5277L60.6181 5.36107L58.382 0.888932L2.04871 29.0556L4.28478 33.5277ZM114.715 99.4723L58.382 127.639L60.6181 132.111L116.951 103.944L114.715 99.4723ZM60.6181 127.639L4.28478 99.4723L2.04871 103.944L58.382 132.111L60.6181 127.639ZM5.66675 101.708V31.2917H0.666748V101.708H5.66675ZM118.333 101.708V31.2917H113.333V101.708H118.333ZM57.0001 59.4583V129.875H62.0001V59.4583H57.0001Z" fill="url(#paint0_linear_65_4)"/>
<defs>
<linearGradient id="paint0_linear_65_4" x1="3" y1="101" x2="116" y2="31" gradientUnits="userSpaceOnUse">
<stop stop-color="#FAC820"/>
<stop offset="1" stop-color="#16C780"/>
</linearGradient>
</defs>
</svg>
