<svg xmlns="http://www.w3.org/2000/svg" xmlns:xlink="http://www.w3.org/1999/xlink" viewBox="0 0 438.77 470.76"><defs><style>.cls-1,.cls-2{opacity:0.9;}.cls-1{fill:url(#New_Gradient_Swatch_9);}.cls-2{fill:url(#New_Gradient_Swatch_9-2);}.cls-3{fill:url(#linear-gradient);}.cls-4{fill:url(#linear-gradient-2);}.cls-5{fill:#f2f2f2;}</style><linearGradient id="New_Gradient_Swatch_9" x1="362.21" y1="400.94" x2="138.45" y2="13.37" gradientTransform="matrix(0.96, -0.28, 0.28, 0.98, -69.88, 103.66)" gradientUnits="userSpaceOnUse"><stop offset="0" stop-color="#fcee21"/><stop offset="0.06" stop-color="#cbe934"/><stop offset="0.13" stop-color="#9ae447"/><stop offset="0.2" stop-color="#70e058"/><stop offset="0.28" stop-color="#4edc65"/><stop offset="0.35" stop-color="#33d970"/><stop offset="0.43" stop-color="#20d877"/><stop offset="0.51" stop-color="#15d67c"/><stop offset="0.59" stop-color="#11d67d"/><stop offset="0.65" stop-color="#12d27d"/><stop offset="0.72" stop-color="#14c77f"/><stop offset="0.78" stop-color="#17b381"/><stop offset="0.84" stop-color="#1c9885"/><stop offset="0.91" stop-color="#227489"/><stop offset="0.97" stop-color="#2a4a8f"/><stop offset="1" stop-color="#2e3192"/></linearGradient><linearGradient id="New_Gradient_Swatch_9-2" x1="352.33" y1="454.92" x2="128.56" y2="67.34" gradientTransform="matrix(0.95, 0.3, -0.31, 0.97, 80.78, -89.22)" xlink:href="#New_Gradient_Swatch_9"/><linearGradient id="linear-gradient" x1="640.28" y1="353.62" x2="316.49" y2="353.62" gradientTransform="matrix(-1, 0, 0, 1, 640.28, 0)" gradientUnits="userSpaceOnUse"><stop offset="0" stop-color="#fcee21"/><stop offset="0.05" stop-color="#facf20"/><stop offset="0.1" stop-color="#f9b51f"/><stop offset="0.16" stop-color="#f8a21e"/><stop offset="0.21" stop-color="#f7971e"/><stop offset="0.27" stop-color="#f7931e"/><stop offset="0.41" stop-color="#f36620"/><stop offset="0.53" stop-color="#f14721"/><stop offset="0.59" stop-color="#f03b22"/><stop offset="1" stop-color="#f0f"/></linearGradient><linearGradient id="linear-gradient-2" x1="640.28" y1="117.14" x2="316.49" y2="117.14" gradientTransform="matrix(-1, 0, 0, 1, 640.28, 0)" gradientUnits="userSpaceOnUse"><stop offset="0" stop-color="#fcee21"/><stop offset="0.03" stop-color="#fce321"/><stop offset="0.09" stop-color="#fbd820"/><stop offset="0.15" stop-color="#fbd420"/><stop offset="0.27" stop-color="#f7931e"/><stop offset="0.41" stop-color="#f36620"/><stop offset="0.53" stop-color="#f14721"/><stop offset="0.59" stop-color="#f03b22"/><stop offset="1" stop-color="#f0f"/></linearGradient></defs><g id="Layer_2" data-name="Layer 2"><g id="Layer_1-2" data-name="Layer 1"><path class="cls-1" d="M434.74,325.11c5.55,19.29-5.25,39.33-24.12,44.76L145.83,446.1C127,451.53,107.16,440.3,101.6,421L23.73,150.49c-5.55-19.28,5.24-39.32,24.12-44.75L312.63,29.51c18.88-5.43,38.68,5.8,44.23,25.08Z"/><path class="cls-2" d="M351.86,424.4c-6.07,19.13-26.17,29.82-44.89,23.87L44.34,364.92c-18.72-5.95-29-26.27-22.9-45.39L106.61,51.21c6.07-19.13,26.16-29.82,44.89-23.88l262.62,83.36c18.72,5.94,29,26.27,22.91,45.39Z"/><path class="cls-3" d="M1.81,329.71l21.34-71.1,17.7,12.5-4.17-13.9,29.39-20.74L91.76,322l-41.35-19.1-2.47-8.24-5.77,19.21a35.13,35.13,0,0,0,23.55,43.75l170.21,51.1,87.86,62L118.15,409a35.14,35.14,0,0,0,42.29,19.57l6.8-2L214,448.13,144.63,469A42.5,42.5,0,0,1,91.7,440.47l-13-43.29L30.29,382.64A42.5,42.5,0,0,1,1.81,329.71Z"/><path class="cls-4" d="M30.29,88.12,78.71,73.58l13-43.29A42.5,42.5,0,0,1,144.63,1.81L214,22.63,167.24,44.21l-6.8-2a35.14,35.14,0,0,0-42.29,19.57L323.79,0,235.93,62,65.72,113.1a35.14,35.14,0,0,0-23.55,43.76l5.77,19.2,2.47-8.24,41.35-19.1L66.07,234.29,36.68,213.55l4.17-13.9-17.7,12.5L1.81,141.05A42.5,42.5,0,0,1,30.29,88.12Z"/><polygon class="cls-5" points="206.47 139.3 183.32 143.86 170.83 165.19 183.09 179.22 206.47 139.3"/><path class="cls-5" d="M298.67,311.48l.35-1c-.32.11-.64.22-1,.31Z"/><polygon class="cls-5" points="164.51 294.94 174.76 317.44 197.32 324.33 178.13 282.24 164.51 294.94"/><path class="cls-5" d="M306.6,162.45l-.69.64.93.41Z"/><path class="cls-5" d="M169.29,219,253,180.81l40.72-38L169.93,199.27l-11.35-13.05-13.19,22.62V142.38h-25v187h25V252.73l9.07,20,12.44-11.62,117,68.53-36.64-41.93-79.41-46.5a18.09,18.09,0,0,1-8.39-11A18.1,18.1,0,0,1,169.29,219Z"/></g></g></svg>